<?xml version="1.0" encoding="utf-8"?>
<!-- Generator: Adobe Illustrator 25.4.1, SVG Export Plug-In . SVG Version: 6.00 Build 0)  -->
<svg version="1.1" id="Layer_1" xmlns="http://www.w3.org/2000/svg" xmlns:xlink="http://www.w3.org/1999/xlink" x="0px" y="0px"
	 viewBox="0 0 612 284.4" style="enable-background:new 0 0 612 284.4;" xml:space="preserve">
<style type="text/css">
	.st0{enable-background:new    ;}
	.st1{clip-path:url(#SVGID_00000045609576418151344810000010207933842024218764_);enable-background:new    ;}
	.st2{fill:none;stroke:#000000;stroke-width:0.6554;stroke-miterlimit:10;}
	
		.st3{clip-path:url(#SVGID_00000132794829105018824100000015611937793382838192_);fill:none;stroke:#000000;stroke-width:0.6554;stroke-miterlimit:10;}
	.st4{fill:#FFFFFF;}
	.st5{fill:url(#SVGID_00000170236694859376295020000005831535908974935428_);}
	.st6{fill:url(#SVGID_00000127731649892574053350000009904942359382992038_);}
	.st7{fill:url(#SVGID_00000128450381597783700260000016061772213049681287_);}
	.st8{fill:url(#SVGID_00000167370193864726787290000001669838165998725035_);}
	.st9{fill:none;stroke:#000000;stroke-width:0.6733;stroke-miterlimit:10;}
	.st10{clip-path:url(#SVGID_00000062875409776797584840000017941371078797376160_);enable-background:new    ;}
	
		.st11{clip-path:url(#SVGID_00000101078692751576035970000005507409099592652441_);fill:none;stroke:#000000;stroke-width:0.6733;stroke-miterlimit:10;}
	.st12{fill:url(#SVGID_00000058587315465065932120000010952384968171565996_);}
	.st13{fill:url(#SVGID_00000007402095149000260500000014785267615779205546_);}
	.st14{fill:url(#SVGID_00000071550360909697547760000003347203265721659303_);}
	.st15{fill:url(#SVGID_00000080177079792909862560000004047405666513004439_);}
	.st16{fill:url(#SVGID_00000065775163817202493940000003612074806964217278_);}
	.st17{fill:url(#SVGID_00000163780511338415672280000004716564883954933680_);}
	.st18{fill:url(#SVGID_00000037667664488386578160000004933850419789988532_);}
	.st19{fill:none;}
	.st20{fill:url(#SVGID_00000103266854947973519050000002110324645368373677_);}
	.st21{fill:url(#SVGID_00000147914862569892470680000000168304734701839534_);}
	.st22{fill:url(#SVGID_00000103983761921581955070000017910388596109537965_);}
	.st23{fill:#828282;}
</style>
<g class="st0">
	<g>
		<defs>
			<path id="SVGID_1_" d="M446.2,53.6c0.9,0,1.8,0,2.6,0l-7.9,0.1c-0.9,0-1.8,0-2.6,0C440.9,53.7,443.5,53.6,446.2,53.6z"/>
		</defs>
		<clipPath id="SVGID_00000055702133171130438810000003175628622243432886_">
			<use xlink:href="#SVGID_1_"  style="overflow:visible;"/>
		</clipPath>
		<g style="clip-path:url(#SVGID_00000055702133171130438810000003175628622243432886_);enable-background:new    ;">
			<path class="st2" d="M387.4,78.7l-7.9,0.1c17.1-17,39.3-25.4,61.4-25.1l7.9-0.1C426.7,53.3,404.4,61.6,387.4,78.7z"/>
		</g>
	</g>
	<g>
		<defs>
			<path id="SVGID_00000047763778702854435540000011659598741979312041_" d="M446.2,53.6c0.9,0,1.8,0,2.6,0l-7.9,0.1
				c-0.9,0-1.8,0-2.6,0C440.9,53.7,443.5,53.6,446.2,53.6z"/>
		</defs>
		<clipPath id="SVGID_00000089576329998998279510000011410186381611481495_">
			<use xlink:href="#SVGID_00000047763778702854435540000011659598741979312041_"  style="overflow:visible;"/>
		</clipPath>
		
			<path style="clip-path:url(#SVGID_00000089576329998998279510000011410186381611481495_);fill:none;stroke:#000000;stroke-width:0.6554;stroke-miterlimit:10;" d="
			M446.2,53.6c0.9,0,1.8,0,2.6,0l-7.9,0.1c-0.9,0-1.8,0-2.6,0C440.9,53.7,443.5,53.6,446.2,53.6z"/>
	</g>
</g>
<path class="st4" d="M518.9,71.7c-1.2,1.2-2.7,1.8-4.4,1.8c-1.8,0-3.3-0.6-4.5-1.8c-1.2-1.2-1.8-2.7-1.8-4.5c0-1.8,0.7-3.4,2-4.6
	c1.2-1.1,2.7-1.7,4.3-1.7c1.7,0,3.2,0.6,4.5,1.9c1.2,1.2,1.8,2.7,1.8,4.4C520.8,68.9,520.2,70.5,518.9,71.7 M510.8,63.5
	c-1,1.1-1.5,2.3-1.5,3.7c0,1.5,0.5,2.7,1.5,3.7c1,1,2.3,1.5,3.7,1.5c1.4,0,2.7-0.5,3.7-1.5c1-1,1.5-2.3,1.5-3.7
	c0-1.4-0.5-2.6-1.5-3.7c-1-1.1-2.2-1.6-3.7-1.6C513,61.9,511.8,62.4,510.8,63.5 M511.7,70.7v-7c0.4,0,1.1,0,2,0c0.9,0,1.3,0,1.4,0
	c0.5,0,1,0.2,1.4,0.3c0.6,0.3,0.9,0.9,0.9,1.7c0,0.6-0.2,1-0.5,1.3c-0.3,0.2-0.7,0.4-1.2,0.5c0.5,0.1,0.8,0.2,1,0.4
	c0.4,0.3,0.6,0.9,0.6,1.6v0.6c0,0.1,0,0.1,0,0.2c0,0.1,0,0.1,0,0.2l0.1,0.2h-1.8c-0.1-0.2-0.1-0.5-0.1-1c0-0.4,0-0.7-0.1-0.9
	c-0.1-0.2-0.3-0.4-0.5-0.5c-0.1-0.1-0.4-0.1-0.6-0.1l-0.4,0h-0.4v2.5L511.7,70.7L511.7,70.7z M515.1,65.1c-0.2-0.1-0.6-0.2-1.1-0.2
	h-0.5v2h0.7c0.4,0,0.8-0.1,1-0.3c0.2-0.2,0.4-0.4,0.4-0.8C515.6,65.4,515.5,65.2,515.1,65.1"/>
<g>
	
		<linearGradient id="SVGID_00000002346517185074854590000002769302512487340953_" gradientUnits="userSpaceOnUse" x1="381.3528" y1="267.3794" x2="384.0463" y2="156.9498" gradientTransform="matrix(1 0 0 -1 0 284)">
		<stop  offset="0" style="stop-color:#7D7D7D"/>
		<stop  offset="1" style="stop-color:#000000"/>
	</linearGradient>
	<path style="fill:url(#SVGID_00000002346517185074854590000002769302512487340953_);" d="M374.6,77.6
		c15.9-15.9,36.3-24.7,57.1-26.3c-25.2-1.7-50.9,7.1-70.2,26.3c-35.4,35.4-35.4,92.8,0,128.3c19.5,19.5,45.7,28.2,71.2,26.3
		c-21.2-1.4-41.9-10.2-58.1-26.3C339.2,170.5,339.2,113,374.6,77.6z"/>
	
		<linearGradient id="SVGID_00000124153017799309999770000005995191966494254248_" gradientUnits="userSpaceOnUse" x1="448.0083" y1="214.2681" x2="449.2029" y2="165.2902" gradientTransform="matrix(1 0 0 -1 0 284)">
		<stop  offset="0" style="stop-color:#7D7D7D"/>
		<stop  offset="1" style="stop-color:#000000"/>
	</linearGradient>
	<path style="fill:url(#SVGID_00000124153017799309999770000005995191966494254248_);" d="M465.7,149.9c0,0,2.3-6.4,0.4-14.7
		c-1.2-4.9-3.6-9.5-7.4-13.4c-7.2-7.2-17.4-9.7-26.6-7.4c5,1.1,9.7,3.6,13.5,7.5c3.8,3.8,6.3,8.5,7.4,13.4
		c1.9,8.3-0.4,14.7-0.4,14.7"/>
	
		<linearGradient id="SVGID_00000123426952870083157560000006543094530544325806_" gradientUnits="userSpaceOnUse" x1="453.875" y1="139.3174" x2="469.208" y2="123.9834" gradientTransform="matrix(1 0 0 -1 0 284)">
		<stop  offset="0" style="stop-color:#7D7D7D"/>
		<stop  offset="1" style="stop-color:#000000"/>
	</linearGradient>
	<polygon style="fill:url(#SVGID_00000123426952870083157560000006543094530544325806_);" points="452.6,150 521.2,218.6 
		533.6,218.6 533.9,218.1 465.7,149.9 	"/>
	
		<linearGradient id="SVGID_00000019655660677132227060000006945645968631150015_" gradientUnits="userSpaceOnUse" x1="160.1602" y1="121.0531" x2="216.7659" y2="147.4691" gradientTransform="matrix(1 0 0 -1 0 284)">
		<stop  offset="0" style="stop-color:#7D7D7D"/>
		<stop  offset="1" style="stop-color:#000000"/>
	</linearGradient>
	<path style="fill:url(#SVGID_00000019655660677132227060000006945645968631150015_);" d="M266.6,46.4h-7.7L158.2,230.5h8.1
		L266.6,46.4z"/>
	<g class="st0">
		<g class="st0">
			<g>
				<path class="st9" d="M405.3,134.4"/>
			</g>
		</g>
	</g>
	<g class="st0">
		<g>
			<defs>
				<path id="SVGID_00000169557465124187756130000018133228418139346066_" d="M438.3,51.1c0.9,0,1.8,0,2.7,0l-8.1,0.1
					c-0.9,0-1.8,0-2.7,0C432.9,51.2,435.6,51.1,438.3,51.1z"/>
			</defs>
			<clipPath id="SVGID_00000142893907344611235900000014016771534304470712_">
				<use xlink:href="#SVGID_00000169557465124187756130000018133228418139346066_"  style="overflow:visible;"/>
			</clipPath>
			<g style="clip-path:url(#SVGID_00000142893907344611235900000014016771534304470712_);enable-background:new    ;">
				<path class="st9" d="M377.9,76.8l-8.1,0.1c17.5-17.5,40.4-26.1,63.1-25.8l8.1-0.1C418.3,50.8,395.5,59.3,377.9,76.8z"/>
			</g>
		</g>
		<g>
			<defs>
				<path id="SVGID_00000039847456231215004370000004319129520540811452_" d="M438.3,51.1c0.9,0,1.8,0,2.7,0l-8.1,0.1
					c-0.9,0-1.8,0-2.7,0C432.9,51.2,435.6,51.1,438.3,51.1z"/>
			</defs>
			<clipPath id="SVGID_00000183207890228500460740000003593133158387976322_">
				<use xlink:href="#SVGID_00000039847456231215004370000004319129520540811452_"  style="overflow:visible;"/>
			</clipPath>
			
				<path style="clip-path:url(#SVGID_00000183207890228500460740000003593133158387976322_);fill:none;stroke:#000000;stroke-width:0.6733;stroke-miterlimit:10;" d="
				M438.3,51.1c0.9,0,1.8,0,2.7,0l-8.1,0.1c-0.9,0-1.8,0-2.7,0C432.9,51.2,435.6,51.1,438.3,51.1z"/>
		</g>
	</g>
	<g class="st0">
		
			<linearGradient id="SVGID_00000177465205905332450430000011023831815605330855_" gradientUnits="userSpaceOnUse" x1="448.0296" y1="145.8918" x2="480.0326" y2="94.6884" gradientTransform="matrix(1 0 0 -1 0 284)">
			<stop  offset="0" style="stop-color:#7D7D7D"/>
			<stop  offset="1" style="stop-color:#000000"/>
		</linearGradient>
		<polygon style="fill:url(#SVGID_00000177465205905332450430000011023831815605330855_);" points="523.5,228.7 509.9,228.5 
			444.5,162.7 457.2,162.3 		"/>
	</g>
	<g class="st0">
		<g>
			
				<linearGradient id="SVGID_00000039132721311540676230000009878420084869023393_" gradientUnits="userSpaceOnUse" x1="453.8723" y1="149.4425" x2="485.8661" y2="98.2538" gradientTransform="matrix(1 0 0 -1 0 284)">
				<stop  offset="0" style="stop-color:#7D7D7D"/>
				<stop  offset="1" style="stop-color:#000000"/>
			</linearGradient>
			<polygon id="SVGID_10_" style="fill:url(#SVGID_00000039132721311540676230000009878420084869023393_);" points="528.5,223.6 
				514.9,223.6 449.1,157.3 461.7,156.8 			"/>
		</g>
	</g>
	<g class="st0">
		<g>
			
				<linearGradient id="SVGID_00000140721954237472904430000014454490843191444655_" gradientUnits="userSpaceOnUse" x1="442.5217" y1="141.9859" x2="474.4036" y2="90.9763" gradientTransform="matrix(1 0 0 -1 0 284)">
				<stop  offset="0" style="stop-color:#7D7D7D"/>
				<stop  offset="1" style="stop-color:#000000"/>
			</linearGradient>
			<polygon id="SVGID_13_" style="fill:url(#SVGID_00000140721954237472904430000014454490843191444655_);" points="518.5,233.7 
				505.5,233.5 439.4,166.8 451.3,166.5 			"/>
		</g>
	</g>
	<g class="st0">
		
			<linearGradient id="SVGID_00000102542933476216069510000007622739055456405410_" gradientUnits="userSpaceOnUse" x1="439.266" y1="118.394" x2="454.695" y2="118.394" gradientTransform="matrix(1 0 0 -1 0 284)">
			<stop  offset="0" style="stop-color:#7D7D7D"/>
			<stop  offset="1" style="stop-color:#000000"/>
		</linearGradient>
		<path style="fill:url(#SVGID_00000102542933476216069510000007622739055456405410_);" d="M442.6,164.7c-1.1,0.8-2.2,1.5-3.4,2.2
			l12.1-0.3c1.1-0.6,2.3-1.4,3.4-2.2L442.6,164.7z"/>
	</g>
	<g class="st0">
		<g>
			
				<linearGradient id="SVGID_00000153697143824801631890000006320515831656298925_" gradientUnits="userSpaceOnUse" x1="437.4186" y1="137.7142" x2="469.0733" y2="87.0682" gradientTransform="matrix(1 0 0 -1 0 284)">
				<stop  offset="0" style="stop-color:#7D7D7D"/>
				<stop  offset="1" style="stop-color:#000000"/>
			</linearGradient>
			<polygon id="SVGID_17_" style="fill:url(#SVGID_00000153697143824801631890000006320515831656298925_);" points="513.5,238.7 
				501.5,238.8 433.6,169.5 444,169.2 			"/>
		</g>
	</g>
	<g class="st0">
		
			<linearGradient id="SVGID_00000136385105784387003120000000855966743798824863_" gradientUnits="userSpaceOnUse" x1="433.466" y1="115.2955" x2="448.298" y2="115.2955" gradientTransform="matrix(1 0 0 -1 0 284)">
			<stop  offset="0" style="stop-color:#7D7D7D"/>
			<stop  offset="1" style="stop-color:#000000"/>
		</linearGradient>
		<path style="fill:url(#SVGID_00000136385105784387003120000000855966743798824863_);" d="M437.7,168.2c-1.4,0.5-2.8,0.9-4.2,1.3
			l10.5-0.1c1.4-0.3,2.9-0.8,4.3-1.4L437.7,168.2z"/>
	</g>
	
		<linearGradient id="SVGID_00000165223866620610925500000002839323086948159618_" gradientUnits="userSpaceOnUse" x1="109.1522" y1="199.4841" x2="137.2467" y2="238.8166" gradientTransform="matrix(0.8542 -0.5199 -0.5199 -0.8542 144.9225 405.1674)">
		<stop  offset="0" style="stop-color:#7D7D7D"/>
		<stop  offset="1" style="stop-color:#000000"/>
	</linearGradient>
	<path style="fill:url(#SVGID_00000165223866620610925500000002839323086948159618_);" d="M120.1,93.4c-1.4,0.8-2.6,1.8-3.8,2.8
		c12.8-6.3,28.7-1.6,36.3,11.1c7.1,11.9,4.5,26.7-5.4,35.3c0.7-0.4,1.4-0.7,2.1-1.2c13.3-8.1,17.5-25.4,9.4-38.7
		C150.7,89.5,133.4,85.3,120.1,93.4z"/>
	<path class="st19" d="M134.8,89.2c-1.6,0-3.1,0.2-4.7,0.4c-13.3,2.2-23.5,13.8-23.5,27.7c0,14.7,11.3,26.8,25.7,28
		c0.8,0.1,1.6,0.1,2.4,0.1c15.6,0,28.2-12.6,28.2-28.2C162.9,101.8,150.3,89.2,134.8,89.2z"/>
	<path d="M132,188.2c-6.2-0.2-12.2-1.2-17.9-2.9v2.4v2.9c4.4,0.9,8.8,1.5,13.2,1.6l0.7,0c0.4,0,0.8,0,1.1,0c17.6,0,34.4-6.4,47.6-18
		c-11.8,8.8-26.4,14-42.3,14C133.7,188.3,132.9,188.2,132,188.2z"/>
	<path class="st19" d="M134.8,89.2c-1.6,0-3.1,0.2-4.7,0.4c-13.3,2.2-23.5,13.8-23.5,27.7c0,14.7,11.3,26.8,25.7,28
		c0.8,0.1,1.6,0.1,2.4,0.1c15.6,0,28.2-12.6,28.2-28.2C162.9,101.8,150.3,89.2,134.8,89.2z"/>
	
		<linearGradient id="SVGID_00000014611852542526287560000010824727510208660120_" gradientUnits="userSpaceOnUse" x1="86.8152" y1="124.3672" x2="113.4467" y2="161.6515" gradientTransform="matrix(1 0 0 -1 0 284)">
		<stop  offset="0" style="stop-color:#7D7D7D"/>
		<stop  offset="1" style="stop-color:#000000"/>
	</linearGradient>
	<path style="fill:url(#SVGID_00000014611852542526287560000010824727510208660120_);" d="M63.6,118.6L63.6,118.6c0-0.4,0-0.8,0-1.3
		c0-12.1,3-23.4,8.4-33.4c-0.1,0.1-0.2,0.2-0.2,0.3c-0.3,0.4-0.6,0.8-0.9,1.3c-0.3,0.5-0.6,0.9-0.9,1.4c-0.3,0.4-0.6,0.9-0.8,1.3
		c-0.3,0.5-0.6,1-0.8,1.4c-0.3,0.4-0.5,0.9-0.8,1.3c-0.3,0.5-0.5,1-0.8,1.5c-0.2,0.5-0.5,0.9-0.7,1.4c-0.2,0.5-0.5,1-0.7,1.6
		c-0.2,0.5-0.4,0.9-0.6,1.4c-0.2,0.5-0.4,1.1-0.6,1.6c-0.2,0.5-0.4,0.9-0.5,1.4c-0.2,0.5-0.4,1.1-0.6,1.7c-0.2,0.5-0.3,1-0.5,1.4
		c-0.2,0.6-0.3,1.1-0.5,1.7c-0.1,0.5-0.3,1-0.4,1.5c-0.2,0.6-0.3,1.2-0.4,1.8c-0.1,0.5-0.2,1-0.3,1.4c-0.1,0.6-0.2,1.2-0.3,1.9
		c-0.1,0.5-0.2,0.9-0.3,1.4c-0.1,0.7-0.2,1.3-0.3,2c-0.1,0.5-0.1,0.9-0.2,1.4c-0.1,0.7-0.1,1.5-0.2,2.2c0,0.4-0.1,0.8-0.1,1.1
		c-0.1,1.1-0.1,2.3-0.1,3.4c0,0.4,0,0.8,0,1.2v106.8l45.7-0.1v0H67v0h-3.4L63.6,118.6L63.6,118.6z"/>
	<path class="st4" d="M134.5,46.4c-1.7,0-3.4,0.1-5.1,0.2C104.5,48.4,83.1,63,72,83.9c-5.3,10-8.4,21.3-8.4,33.4c0,0.4,0,0.8,0,1.2
		l0,0v112H67h36.7h10.4v-40v-2.9v-2.4c5.7,1.7,11.7,2.7,17.9,2.9c0.8,0,1.6,0.1,2.5,0.1c15.9,0,30.5-5.2,42.3-14
		c17.4-12.9,28.6-33.6,28.6-56.9C205.4,78.2,173.7,46.4,134.5,46.4z M134.8,145.5c-0.8,0-1.6-0.1-2.4-0.1
		c-14.4-1.2-25.7-13.3-25.7-28c0-14,10.2-25.5,23.5-27.7c1.5-0.3,3.1-0.4,4.7-0.4c15.6,0,28.2,12.6,28.2,28.2
		C162.9,132.9,150.3,145.5,134.8,145.5z"/>
	<path class="st4" d="M266.6,46.4L166.3,230.6h200L266.6,46.4z M266.6,133.7l29.2,54.4h-59.1L266.6,133.7z"/>
	<g>
		<path class="st4" d="M459.9,159.4c-0.6,0.8-1.3,1.5-2,2.3c-0.2,0.2-0.5,0.4-0.7,0.6l66.4,66.4l2.8-2.8L459.9,159.4z"/>
		<path class="st4" d="M463.7,153.1c-0.6,1.3-1.2,2.5-1.9,3.7l66.8,66.8l2.8-2.8L463.7,153.1z"/>
		<path class="st4" d="M454.7,164.3c-1.1,0.8-2.2,1.6-3.4,2.2l67.2,67.2l2.8-2.8L454.7,164.3z"/>
		<path class="st4" d="M448.3,167.9c-1.4,0.6-2.9,1-4.3,1.3l69.5,69.5l2.8-2.8L448.3,167.9z"/>
	</g>
	
		<linearGradient id="SVGID_00000163770802551670132600000012258472947622397851_" gradientUnits="userSpaceOnUse" x1="448.988" y1="128.799" x2="463.664" y2="128.799" gradientTransform="matrix(1 0 0 -1 0 284)">
		<stop  offset="0" style="stop-color:#7D7D7D"/>
		<stop  offset="1" style="stop-color:#000000"/>
	</linearGradient>
	<path style="fill:url(#SVGID_00000163770802551670132600000012258472947622397851_);" d="M463.7,153.1l-12.7,0.5
		c-0.6,1.3-1.2,2.5-1.9,3.6l12.7-0.5C462.5,155.6,463.1,154.4,463.7,153.1z"/>
	
		<linearGradient id="SVGID_00000169519539794417535180000010245674274208463244_" gradientUnits="userSpaceOnUse" x1="444.46" y1="122.958" x2="459.943" y2="122.958" gradientTransform="matrix(1 0 0 -1 0 284)">
		<stop  offset="0" style="stop-color:#7D7D7D"/>
		<stop  offset="1" style="stop-color:#000000"/>
	</linearGradient>
	<path style="fill:url(#SVGID_00000169519539794417535180000010245674274208463244_);" d="M447.2,159.8c-0.6,0.8-1.3,1.5-2,2.2
		l-0.7,0.6l12.8-0.4l0.7-0.6c0.7-0.7,1.4-1.5,2-2.2L447.2,159.8z"/>
	<path d="M470.1,226.5l16.7,17.1l21.6,0l-24-24C479.8,222.4,475,224.7,470.1,226.5z"/>
	<polygon class="st19" points="508.5,243.6 508.5,243.6 508.5,243.6 	"/>
	<polygon class="st23" points="508.5,243.6 508.5,243.6 508.4,243.6 	"/>
	<path class="st4" d="M533.6,218.6l2.8-2.8l-23.4-23.4c0.6-0.9,1.3-1.7,1.8-2.6l0.1,0.1c0.6-0.9,1.1-1.9,1.7-2.8
		c0-0.1,0.1-0.1,0.1-0.1c0.1-0.2,0.3-0.5,0.4-0.7c4.9-8.5,7.3-16.7,7.3-16.7l0,0c10-31.3,2.6-67-22.2-91.8
		c-35.4-35.4-92.8-35.4-128.3,0c-35.4,35.4-35.4,92.8,0,128.3c26,26,63.9,32.9,96.3,20.6c4.9-1.9,9.7-4.2,14.3-6.9l24,24h0l0,0
		l2.8-2.8l-67.7-67.7c0,0-0.1,0-0.1,0l-3.4-3.4c-7.9,0.6-16-2.1-22.1-8.1c-11-11-11-28.8,0-39.8c11-11,28.8-11,39.8,0
		c3.8,3.8,6.3,8.5,7.4,13.4c1.1,4.6,0.8,8.7,0.4,11.4c-0.2,1.1-0.4,2.2-0.7,3.3c0,0,0,0.1,0,0.1l0,0c0,0,0,0,0,0L533.6,218.6z"/>
</g>
<polygon points="266.6,133.8 295.8,188.1 281.9,188.1 259.7,146.2 "/>
</svg>
